<?xml version="1.0" encoding="utf-8"?>
<svg height="100%" stroke-miterlimit="10" style="fill-rule:nonzero;clip-rule:evenodd;stroke-linecap:round;stroke-linejoin:round;" version="1.1" viewBox="400 100 900 763.434" width="100%" xmlns="http://www.w3.org/2000/svg" xmlns:bx="https://boxy-svg.com">
  <defs>
    <bx:grid x="0" y="0" width="100" height="100"/>
    <view id="view-1" viewBox="236.591 400 31.708 1">
      <title>View 1</title>
    </view>
  </defs>
  <g id="Untitled" style="" transform="matrix(0.624004, 0, 0, 1, 303.954407, 13.414943)">
    <g opacity="1">
      <path d="M688.284 147.168C611.976 153.3 531.92 164.201 448.116 179.871C364.313 195.542 311.851 206.103 290.729 211.553C269.608 217.004 259.048 227.564 259.048 243.235C259.048 251.07 259.048 258.905 259.048 266.741C295.499 260.949 331.95 255.158 368.401 249.367C441.303 237.784 507.051 229.268 565.645 223.817C624.24 218.366 675.68 214.619 719.966 212.575C764.252 210.531 816.374 209.509 876.331 209.509C936.288 209.509 992.838 210.872 1045.98 213.597C1099.13 216.322 1160.1 221.432 1228.92 228.927C1297.73 236.422 1357.01 244.598 1406.74 253.455C1456.48 262.312 1482.37 266.741 1484.42 266.741C1486.46 266.741 1487.82 265.719 1488.5 263.675C1489.19 261.631 1489.19 253.795 1488.5 240.169C1487.82 226.542 1451.37 211.553 1379.15 195.201C1306.93 178.849 1230.96 165.904 1151.25 156.366C1071.53 146.827 993.519 141.376 917.211 140.014C840.902 138.651 764.593 141.036 688.284 147.168Z" fill="#fa7900" fill-rule="evenodd" opacity="1" stroke="none"/>
      <path d="M335.697 286.159C309.466 290.587 283.235 295.016 257.004 299.444C272.334 362.467 287.663 425.49 302.993 488.513C333.653 614.559 352.73 680.307 360.225 685.758C367.719 691.208 448.116 713.692 601.415 753.209C678.064 772.968 754.714 792.726 831.363 812.485C831.363 782.847 831.363 753.209 831.363 723.571C831.363 664.296 818.418 632.955 792.528 629.548C766.637 626.141 742.45 620.691 719.966 613.196C697.482 605.701 676.361 596.844 656.603 586.624C636.844 576.404 616.404 563.459 595.283 547.789C574.162 532.118 556.107 516.788 541.117 501.799C526.128 486.81 511.48 469.436 497.172 449.677C482.864 429.919 468.897 405.732 455.27 377.116C441.644 348.5 432.786 324.654 428.698 305.576C424.61 286.499 421.204 276.279 418.478 274.917C415.753 273.554 388.159 277.301 335.697 286.159Z" fill="#0041ad" fill-rule="evenodd" opacity="1" stroke="none"/>
      <path d="M1315.79 311.708C1308.97 337.599 1301.82 358.72 1294.33 375.072C1286.83 391.424 1275.59 410.842 1260.6 433.325C1245.61 455.809 1228.58 476.93 1209.5 496.689C1190.42 516.447 1172.37 532.799 1155.33 545.745C1138.3 558.69 1118.2 571.294 1095.04 583.558C1071.87 595.822 1047.34 606.042 1021.45 614.218C995.563 622.394 971.376 627.845 948.892 630.57C926.409 633.295 915.167 664.296 915.167 723.571C915.167 753.209 915.167 782.847 915.167 812.485C991.816 792.726 1068.47 772.968 1145.11 753.209C1298.41 713.692 1378.13 692.23 1384.26 688.823C1390.39 685.417 1394.82 680.988 1397.55 675.538C1400.27 670.087 1416.28 606.042 1445.58 483.403C1460.23 422.084 1474.88 360.764 1489.53 299.444C1462.27 295.016 1435.02 290.587 1407.77 286.159C1353.26 277.301 1322.6 285.818 1315.79 311.708Z" fill="#0041ad" fill-rule="evenodd" opacity="1" stroke="none"/>
      <path d="M823.187 284.115C810.923 286.159 795.253 290.587 776.176 297.4C757.099 304.214 741.428 311.708 729.164 319.884C716.9 328.06 705.318 338.28 694.416 350.544C683.515 362.808 675.68 375.413 670.911 388.358C666.141 401.303 663.757 412.886 663.757 423.106C663.757 433.325 664.779 442.523 666.823 450.699C668.867 458.875 674.317 469.776 683.174 483.403C692.032 497.03 701.23 507.931 710.768 516.107C720.307 524.283 731.549 531.777 744.494 538.591C757.439 545.404 773.11 551.536 791.506 556.986C809.901 562.437 825.572 565.844 838.517 567.206C851.462 568.569 866.792 568.91 884.507 568.228C902.221 567.547 918.233 565.844 932.541 563.118C946.848 560.393 963.541 554.943 982.618 546.767C1001.7 538.591 1015.66 531.437 1024.52 525.305C1033.38 519.173 1042.92 509.975 1053.14 497.711C1063.36 485.447 1070.85 471.48 1075.62 455.809C1080.39 440.139 1081.75 424.809 1079.71 409.82C1077.66 394.83 1072.89 380.863 1065.4 367.918C1057.9 354.973 1046.66 342.709 1031.67 331.126C1016.68 319.544 1000.33 310.005 982.618 302.51C964.904 295.016 947.53 289.565 930.497 286.159C913.463 282.752 894.386 281.049 873.265 281.049C852.144 281.049 835.451 282.071 823.187 284.115Z" fill="#0041ad" fill-rule="evenodd" opacity="1" stroke="none"/>
    </g>
  </g>
</svg>